<svg xmlns="http://www.w3.org/2000/svg" viewBox="0 0 773.33 649.33"><defs><style>.cls-1{isolation:isolate;}.cls-2{fill:#fff1e0;}.cls-3{fill:#f7af7d;}.cls-4,.cls-9{opacity:0.4;}.cls-4{mix-blend-mode:screen;}.cls-5{fill:#de8c52;}.cls-6,.cls-9{fill:#fff;}.cls-7{fill:#dbc2bf;}.cls-8{fill:#403634;}.cls-10{fill:#ed6b50;}.cls-11{fill:#83483f;}.cls-12{fill:#006681;}.cls-13{fill:#d05b46;}.cls-14{fill:#9f3420;}.cls-15{fill:#fcd2a5;}.cls-16{fill:#550b2e;}.cls-17{fill:#3d0e28;}.cls-18{fill:#f49e81;}.cls-19{fill:#ef7b71;}.cls-20{fill:#d65070;}.cls-21{fill:#fceade;}.cls-22{fill:#424257;}.cls-23{fill:#f9be91;}.cls-24{fill:#cf4b57;}.cls-25{fill:#eb5d6a;}.cls-26{fill:#6f1033;}.cls-27{fill:#b33250;}.cls-28{fill:#b33c5d;}.cls-29{fill:#6e5c8a;}.cls-30{fill:#594a7a;}.cls-31{fill:#187f95;}.cls-32{fill:#bb7343;}</style></defs><g class="cls-1"><g id="Camada_2" data-name="Camada 2"><g id="Camada_1-2" data-name="Camada 1"><path class="cls-2" d="M738.42,419.25q1.55-2.21,3.06-4.43c9.85-14.61,19.11-29.78,26.4-46.8.84-2.21,1.73-4.36,2.52-6.63l1.08-3.52.54-1.77c4.58-15.09-3.8-31.28-10.17-44.55A403.86,403.86,0,0,0,735.09,265c-9.71-14.77-20-28.91-30.77-42.54-27.92-35.47-60.63-66.12-93.84-96.3C561.3,81.45,511,31.86,445.56,12.47,398.89-1.36,349.64-4.13,302,6.38,216.84,25.19,145.16,82.3,88.37,147.47,60.5,179.46,35.59,214.06,13,250.08c-18.51,29.51-16,61.91-.23,94.6-.39,2.49-.73,5.35-.95,8.6A92.81,92.81,0,0,0,14.39,379c.15.63.28,1.27.44,1.9s.37,1.26.56,1.89c.39,1.28.77,2.58,1.17,3.9.85,2.62,1.89,5.28,2.94,8a137,137,0,0,0,8.38,16.75c6.6,11.46,15.57,23.08,26.4,34.72a328.18,328.18,0,0,0,38.3,34.34c29.15,22.52,65.06,44.15,106.45,64.18,20.71,10,42.81,19.61,66.21,28.62s48.12,17.41,74.19,24.65c13.05,3.56,26.43,6.89,40.27,9.5,6.91,1.31,13.93,2.46,21.13,3.26,1.8.21,3.62.35,5.43.53s3.68.24,5.52.37,3.72.12,5.62.12,3.87,0,5.63-.21A347.63,347.63,0,0,0,511.19,595l2.76-.86c.92-.29,1.82-.65,2.73-1l5.46-2c3.63-1.37,7.33-2.59,10.93-4.09l10.83-4.56c.91-.4,1.82-.77,2.73-1.15,103.68-31.9,180.24-95.95,191.46-118.78C741.33,456,741.52,440.63,738.42,419.25ZM693.3,231.6c10.48,13.35,20.57,27.19,30,41.58A391.94,391.94,0,0,1,749.07,318c1.83,3.88,3.6,7.78,5.11,11.7A93.92,93.92,0,0,1,758,341.36l.59,2.78.19,1.31a8.53,8.53,0,0,1,.14,1.25l.08,1.15,0,.89a5.54,5.54,0,0,1-.19,1.15l-.26,1.28-.24,1.29-.44,1.4-.86,2.81c-.66,1.89-1.46,3.81-2.17,5.72A221.37,221.37,0,0,1,743.45,385c-2.2,3.65-4.27,7.36-6.6,10.92l-2,3.15C722.31,337.81,689,244.65,631.2,162.89A677.5,677.5,0,0,1,693.3,231.6ZM269.08,562.81c-23.22-8.63-45.19-17.83-65.78-27.42-41.18-19.19-76.94-39.91-106-61.39a330.35,330.35,0,0,1-38.21-32.67c-10.82-11-19.82-22-26.53-32.83A135.92,135.92,0,0,1,24,392.71c-1.1-2.6-2.2-5.1-3.12-7.57l-1.26-3.68c-.21-.6-.42-1.2-.62-1.79s-.33-1.2-.5-1.79a96.7,96.7,0,0,1-3.8-24.57c0-1.63,0-3.16.09-4.61C62.39,441.11,213.6,535,294.68,571.86Q281.63,567.48,269.08,562.81Z"/><rect class="cls-3" x="96.03" y="277.51" width="321.64" height="275.41"/><g class="cls-4"><path class="cls-3" d="M351,297.93H96v-4.16H351C353.55,293.77,353.55,297.93,351,297.93Z"/><path class="cls-3" d="M308.41,308.32H154.85c-2.56,0-2.56,4.16,0,4.16H308.41C311,312.48,311,308.32,308.41,308.32Z"/><path class="cls-3" d="M417.68,294.81V299H383.59c-2.57,0-2.53-4.16,0-4.16Z"/><path class="cls-3" d="M393.62,309.36h-53.5c-2.55,0-2.55,4.15,0,4.15h53.5C396.17,313.51,396.18,309.36,393.62,309.36Z"/><path class="cls-3" d="M106.3,314.55H96V310.4H106.3C108.83,310.4,108.83,314.55,106.3,314.55Z"/><path class="cls-3" d="M205.37,333.8H96v-4.16H205.37C207.91,329.64,207.91,333.8,205.37,333.8Z"/><path class="cls-3" d="M417.68,328.56v4.16H278.18c-2.54,0-2.54-4.16,0-4.16Z"/><path class="cls-3" d="M259.87,328.58H246.49c-2.55,0-2.55,4.16,0,4.16h13.38C262.42,332.74,262.42,328.58,259.87,328.58Z"/><path class="cls-3" d="M175.14,353.51H96v-4.16h79.11C177.71,349.35,177.71,353.51,175.14,353.51Z"/><path class="cls-3" d="M299,349.89H208.84c-2.55,0-2.55,4.16,0,4.16H299C301.55,354.05,301.56,349.89,299,349.89Z"/><path class="cls-3" d="M342.6,348.85H324.27c-2.55,0-2.56,4.16,0,4.16H342.6C345.15,353,345.15,348.85,342.6,348.85Z"/><path class="cls-3" d="M417.68,348.85V353H380.27c-2.58,0-2.58-4.16,0-4.16Z"/><path class="cls-3" d="M417.68,379v4.16H271.76c-2.54,0-2.54-4.16,0-4.16Z"/><path class="cls-3" d="M158.81,386.76H96v-4.15h62.78C161.35,382.61,161.35,386.76,158.81,386.76Z"/><path class="cls-3" d="M183.58,367H129.09c-2.55,0-2.56,4.15,0,4.15h54.49C186.13,371.19,186.13,367,183.58,367Z"/><path class="cls-3" d="M240.05,378.47H210.82c-2.55,0-2.55,4.16,0,4.16h29.23C242.6,382.63,242.61,378.47,240.05,378.47Z"/><path class="cls-3" d="M153.85,401.33H114.22c-2.55,0-2.55,4.16,0,4.16h39.63C156.41,405.49,156.41,401.33,153.85,401.33Z"/><path class="cls-3" d="M342.1,401.33H202.4c-2.55,0-2.55,4.16,0,4.16H342.1C344.65,405.49,344.66,401.33,342.1,401.33Z"/><path class="cls-3" d="M395.6,399.25H364.39c-2.55,0-2.55,4.16,0,4.16H395.6C398.15,403.41,398.16,399.25,395.6,399.25Z"/><path class="cls-3" d="M182.11,423.18H96V419h86.08C184.65,419,184.65,423.18,182.11,423.18Z"/><path class="cls-3" d="M274.73,416.92H205.87c-2.55,0-2.55,4.16,0,4.16h68.86C277.28,421.08,277.28,416.92,274.73,416.92Z"/><path class="cls-3" d="M404,416.4H304.45c-2.55,0-2.55,4.16,0,4.16H404C406.57,420.56,406.58,416.4,404,416.4Z"/><path class="cls-3" d="M128.61,441.34H96v-4.15h32.58C131.15,437.19,131.15,441.34,128.61,441.34Z"/><path class="cls-3" d="M224.2,436.67H149.4c-2.55,0-2.56,4.15,0,4.15h74.8C226.75,440.82,226.75,436.67,224.2,436.67Z"/><path class="cls-3" d="M281.66,433h-32.2c-2.55,0-2.55,4.16,0,4.16h32.2C284.21,437.19,284.22,433,281.66,433Z"/><path class="cls-3" d="M417.68,438.73v4.15H307.42c-2.53,0-2.53-4.15,0-4.15Z"/><path class="cls-3" d="M193.49,459H96v-4.16h97.46C196,454.85,196,459,193.49,459Z"/><path class="cls-3" d="M256.89,455.89H228.16c-2.55,0-2.55,4.16,0,4.16h28.73C259.45,460.05,259.45,455.89,256.89,455.89Z"/><path class="cls-3" d="M417.68,464.21v4.16H293.08c-2.58,0-2.58-4.16,0-4.16Z"/><path class="cls-3" d="M180.61,482.37H96v-4.15h84.58C183.14,478.22,183.14,482.37,180.61,482.37Z"/><path class="cls-3" d="M221.72,479.8H195.47c-2.55,0-2.56,4.15,0,4.15h26.25C224.27,484,224.28,479.8,221.72,479.8Z"/><path class="cls-3" d="M417.68,488.11v4.16H281.19c-2.58,0-2.58-4.16,0-4.16Z"/><path class="cls-3" d="M220.24,504.24H96v-4.16H220.24C222.77,500.08,222.77,504.24,220.24,504.24Z"/><path class="cls-3" d="M135.51,529.68H96v-4.16h39.48C138.08,525.52,138.08,529.68,135.51,529.68Z"/><path class="cls-3" d="M197,524.49H155.84c-2.55,0-2.56,4.15,0,4.15H197C199.5,528.64,199.51,524.49,197,524.49Z"/><path class="cls-3" d="M380.74,514.61H236.58c-2.55,0-2.55,4.16,0,4.16H380.74C383.29,518.77,383.3,514.61,380.74,514.61Z"/><path class="cls-3" d="M417.68,505.24v4.16h-7.22c-2.53,0-2.53-4.16,0-4.16Z"/><path class="cls-3" d="M336.16,536.44H261.35c-2.55,0-2.55,4.15,0,4.15h74.81C338.71,540.59,338.71,536.44,336.16,536.44Z"/><path class="cls-3" d="M417.68,532.8V537h-32.5c-2.54,0-2.54-4.16,0-4.16Z"/></g><rect class="cls-5" x="227.83" y="277.51" width="6.94" height="275.42"/><rect class="cls-5" x="185.56" y="306.2" width="24.77" height="7.97"/><rect class="cls-5" x="252.27" y="306.2" width="24.77" height="7.97"/><rect class="cls-6" x="417.68" y="260.26" width="255.01" height="292.66"/><rect class="cls-7" x="82.5" y="260.26" width="590.19" height="17.24"/><path class="cls-8" d="M615.3,315.86a8.59,8.59,0,1,1,8.17-8.57A8.39,8.39,0,0,1,615.3,315.86Zm0-13a4.42,4.42,0,1,0,4.21,4.42A4.32,4.32,0,0,0,615.3,302.87Z"/><path class="cls-8" d="M586.8,315.86a8.59,8.59,0,1,1,8.17-8.57A8.38,8.38,0,0,1,586.8,315.86Zm0-13a4.42,4.42,0,1,0,4.21,4.42A4.32,4.32,0,0,0,586.8,302.87Z"/><path class="cls-8" d="M558.3,315.86a8.59,8.59,0,1,1,8.17-8.57A8.38,8.38,0,0,1,558.3,315.86Zm0-13a4.42,4.42,0,1,0,4.21,4.42A4.32,4.32,0,0,0,558.3,302.87Z"/><path class="cls-8" d="M643.8,315.86a8.59,8.59,0,1,1,8.17-8.57A8.39,8.39,0,0,1,643.8,315.86Zm0-13a4.42,4.42,0,1,0,4.21,4.42A4.32,4.32,0,0,0,643.8,302.87Z"/><rect class="cls-7" x="417.68" y="527.09" width="255.01" height="6.76"/><path class="cls-7" d="M650,350.47V487.65c0,7.86-6.06,14.22-13.51,14.22H453.9a10.81,10.81,0,0,1-3.29-.46,14,14,0,0,1-10.26-13.76V350.47c0-7.86,6.06-14.17,13.55-14.17H636.48a13.53,13.53,0,0,1,12.64,9.14A14.72,14.72,0,0,1,650,350.47Z"/><path class="cls-9" d="M608,336.3,450.61,501.41a14,14,0,0,1-10.26-13.76V435.73l94.79-99.43Z"/><path class="cls-9" d="M650,350.47v34.84L538.87,501.87H500L649.12,345.44A14.72,14.72,0,0,1,650,350.47Z"/><polygon class="cls-9" points="649.99 409.08 649.99 429.5 581 501.87 561.54 501.87 649.99 409.08"/><rect class="cls-5" x="432.6" y="245.96" width="95.45" height="14.3"/><rect class="cls-5" x="562.31" y="245.96" width="95.45" height="14.3"/><path class="cls-8" d="M566.54,225.49h86a4.25,4.25,0,0,1,4.25,4.25V246a0,0,0,0,1,0,0H562.29a0,0,0,0,1,0,0V229.74A4.25,4.25,0,0,1,566.54,225.49Z" transform="translate(1219.04 471.45) rotate(180)"/><path class="cls-8" d="M507.7,212.76l67.43,22.79a3.43,3.43,0,0,0,4.36-2.35h0a3.66,3.66,0,0,0-2.23-4.57l-67.43-22.79a3.43,3.43,0,0,0-4.36,2.34h0A3.67,3.67,0,0,0,507.7,212.76Z"/><rect class="cls-5" x="432.6" y="75.24" width="10.97" height="45.78"/><rect class="cls-5" x="575.63" y="75.24" width="10.97" height="45.78"/><rect class="cls-5" x="503.85" y="38.27" width="11.5" height="153.99" transform="translate(624.86 -394.34) rotate(90)"/><path class="cls-10" d="M449.24,73.81h23.43a1.56,1.56,0,0,1,1.56,1.56v34.18a0,0,0,0,1,0,0H447.68a0,0,0,0,1,0,0V75.37A1.56,1.56,0,0,1,449.24,73.81Z"/><rect class="cls-11" x="452.31" y="57.52" width="17.28" height="16.29"/><rect class="cls-8" x="452.31" y="57.52" width="17.28" height="4.47"/><ellipse class="cls-6" cx="460.95" cy="86.89" rx="9.64" ry="6.11"/><rect class="cls-12" x="477.97" y="84.18" width="16.12" height="25.37"/><path class="cls-8" d="M478.48,78.69h15.1a.51.51,0,0,1,.51.51v5a0,0,0,0,1,0,0H478a0,0,0,0,1,0,0v-5A.51.51,0,0,1,478.48,78.69Z"/><rect class="cls-6" x="480.36" y="90.33" width="11.35" height="5.9"/><rect class="cls-8" x="480.36" y="98.4" width="11.35" height="1.62"/><rect class="cls-13" x="498.2" y="84.18" width="16.12" height="25.37"/><path class="cls-8" d="M498.71,78.69h15.1a.51.51,0,0,1,.51.51v5a0,0,0,0,1,0,0H498.2a0,0,0,0,1,0,0v-5A.51.51,0,0,1,498.71,78.69Z"/><rect class="cls-6" x="500.59" y="90.33" width="11.35" height="5.9"/><rect class="cls-8" x="500.59" y="98.4" width="11.35" height="1.62"/><rect class="cls-14" x="518.43" y="84.18" width="16.12" height="25.37"/><path class="cls-8" d="M518.94,78.69H534a.51.51,0,0,1,.51.51v5a0,0,0,0,1,0,0H518.43a0,0,0,0,1,0,0v-5A.51.51,0,0,1,518.94,78.69Z"/><rect class="cls-6" x="520.82" y="90.33" width="11.35" height="5.9"/><rect class="cls-8" x="520.82" y="98.4" width="11.35" height="1.62"/><rect class="cls-15" x="538.21" y="68.78" width="31.65" height="40.77"/><rect class="cls-3" x="536.56" y="63.02" width="34.96" height="5.76"/><path class="cls-6" d="M565.44,80.6c0,3.08-5.1,5.58-11.4,5.58s-11.4-2.5-11.4-5.58S547.74,75,554,75,565.44,77.52,565.44,80.6Z"/><path class="cls-16" d="M386.54,157.43a37.39,37.39,0,0,0-8.94-9.07c9.13-7.61,12.32-22.1,7.28-33.13-3-6.53-8.26-11.5-12.85-16.91s-8.74-11.94-8.58-19.17L312.31,89.52a36.31,36.31,0,0,1-5.09,21.9c-2.6,4.27-6.07,7.88-8.84,12s-4.87,9.16-4.17,14.17c.79,5.67,4.92,10.1,8.84,14.1-4.93,1.19-8.38,6.48-8.55,11.78s2.5,10.4,6.24,14,8.48,5.79,13.28,7.46c19,6.58,39.9,5.21,58.9-1.23a35.68,35.68,0,0,0,9.94-4.75,16.08,16.08,0,0,0,6.32-9.08C390.15,165.63,388.86,161.07,386.54,157.43Z"/><path class="cls-17" d="M355.85,91.27l1.47.22c-1.21,4.18.56,8.75,3.24,12.08s6.22,5.78,9.38,8.62,6.07,6.37,6.82,10.66-.92,9-3.58,12.52-6.22,6.15-9.74,8.69a10.17,10.17,0,0,1,8.27,5.17,11.17,11.17,0,0,1,.32,10.1c-1.81,3.77-5.57,6-9.29,7.67A55.13,55.13,0,0,1,332,171c-5.59-.89-11.42-2.9-14.92-7.56s-3.47-12.54,1.29-15.76a27.27,27.27,0,0,1-8.85-6.42,13,13,0,0,1-3.16-10.44c.62-3.29,2.79-6,4.62-8.71a49.06,49.06,0,0,0,8.06-24.4C330.78,92.3,343.06,91.72,355.85,91.27Z"/><path class="cls-18" d="M220.55,235.63c4.78,18.91,32.94,19.42,32.94,19.42l3.46-6.87,14.34-12.07,9.45-7.88-19.52-32.84S218.24,226.46,220.55,235.63Z"/><path class="cls-19" d="M274.69,218.05h0l-13.47-22.66-8.86,6.68,16.23,20.67-9.75,7.47c-7.71-1.67-12.44.74-12.44.74,6.72-.06,18.16,5.74,18.16,5.74,1-.24,6.73-.58,6.73-.58l9.45-7.88Z"/><path class="cls-20" d="M311.46,157.81s-12.34,3-21,7.77c-3.67,2-37.1,27.53-37.1,27.53l26.58,40.7,30.41-19.91-3.13-18.37,4.31-35.45Z"/><path class="cls-18" d="M445.82,249.62c-8.33,8.84-35.53,8.28-35.53,8.28l-2.45-7.33L395.37,236.4l-11.06-12.57L406.5,195s2.7,2.57,6.69,6.65C426,214.67,452.18,242.88,445.82,249.62Z"/><path class="cls-19" d="M420.85,235.08l-17.29,3.58-8.19-2.29v0l-11.06-12.57L406.5,195s2.7,2.57,6.69,6.65l-18.5,20.76,10.14,9.81C408.43,231.84,420.85,235.08,420.85,235.08Z"/><path class="cls-20" d="M368.06,159.31s16.27,2.85,19,6.14L411.47,195l-27.8,35.61-6.07-5.59-1.6-26.2Z"/><path class="cls-18" d="M380.24,440.58s16.37,33.07,17.33,46.41c.5,6.94,5.3,98.8,5.3,98.8H382.38S361.72,473.07,356.6,461.47c-2.31-5.23-7.1-28.37-11.66-52.21,12-1.25,23.87-3.12,35.54-5.4C380.38,423.87,380.24,440.58,380.24,440.58Z"/><path class="cls-6" d="M410.43,623.46c0,3.07-6.42,19.44-7,20.15s-2.79,1-6.13,1-16-16.21-17.12-18.7a1.44,1.44,0,0,1-.12-.46c-.42-2.61.93-12.16,1.94-18.49a31,31,0,0,0-.1-10c-.1-.65-.22-1.37-.32-2.21-.23-1.68.77-9.06.77-9.06h20.48s1,5.85,1.44,7.31-1.44,7.74-1.44,7.74C404.5,604.34,410.43,620.39,410.43,623.46Z"/><path class="cls-21" d="M410.43,623.46c0,3.07-6.42,19.44-7,20.15s-2.79,1-6.13,1-16-16.21-17.12-18.7a1.44,1.44,0,0,1-.12-.46c3.41,2.7,18.09,14.18,19.2,14.18s6-12,6-13.86-6.95-22.51-6.95-22.51a61,61,0,0,0,1.94-6.9c.15-1.51-.74-10.62-.74-10.62h3.34s1,5.85,1.44,7.31-1.44,7.74-1.44,7.74C404.5,604.34,410.43,620.39,410.43,623.46Z"/><path class="cls-22" d="M291.61,410c-3.19-26.08-5.84-56-4.35-68.79C288.49,330.7,291,316,293.5,303c1.17-6.22,2.32-12.08,3.3-16.93.18-.94.37-1.84.54-2.69s.35-1.72.51-2.5l.6-3c.64-3.07,1-4.87,1-4.87h61.46s.24.48.68,1.4c.06.11.11.22.17.35s.25.52.38.81h0c.65,1.38,1.53,3.29,2.55,5.62.11.27.23.54.35.82.48,1.13,1,2.33,1.52,3.62.11.27.22.55.34.82.53,1.33,1.09,2.73,1.66,4.2h0c.4,1,.81,2.12,1.22,3.23s.83,2.26,1.24,3.43l.55,1.59h0c0,.07,0,.14.07.22s.11.32.16.49c.14.39.27.78.4,1.17s.25.75.38,1.13c.65,2,1.3,4.08,1.92,6.19l.36,1.26c.17.57.33,1.15.49,1.73.25.92.51,1.86.75,2.8,1,3.8,1.85,7.7,2.54,11.61.09.45.16.9.24,1.35s.17,1.08.26,1.62.13.86.18,1.29.12.78.16,1.17c.28,2,.49,4.06.63,6.08,0,.48.07,1,.1,1.44.43,7.61.37,39.31.24,65.41-11.67,2.28-23.56,4.15-35.54,5.4-5.57-29.07-10.8-59.2-10.8-59.2l-5.51.46s-.43,32.85-.94,60.08A260,260,0,0,1,291.61,410Z"/><path class="cls-6" d="M327.69,410.6c-.34,18.09-.72,33.7-1,35.55,0,0,7.28,22.51,9.46,34.35,1.6,8.65-6.6,115.9-6.6,115.9H308.63s-7.19-132.62-9.95-141c-1.26-3.84-4.36-23.24-7.07-45.4A260,260,0,0,0,327.69,410.6Z"/><path class="cls-6" d="M332.5,621.23c-1.38,2.18-5.14,7.91-10.27,6.65s-6-.27-10.88,2-23.24,3.26-23.24,3.26-3.93.88-5.5,1.45-12.19-2.91-13.36-2.75c-.42.07-.77-1.08-.94-2.56-.3-2.57,0-6.11,1.54-5.8a6.93,6.93,0,0,0,.85.12c3.07.36,10,.07,13.55-2.13,3.89-2.4,21.47-17.67,24.38-25h20.88C331.45,602,333.62,619.45,332.5,621.23Z"/><path class="cls-21" d="M332.5,621.23c-1.38,2.18-5.14,7.91-10.27,6.65s-6-.27-10.88,2-23.24,3.26-23.24,3.26-3.93.88-5.5,1.45-12.19-2.91-13.36-2.75c-.42.07-.77-1.08-.94-2.56-.3-2.57,0-6.11,1.54-5.8a6.93,6.93,0,0,0,.85.12c2.64,2.86,7.57,7.58,11.21,7.44,5.21-.23,27.25-10.85,32.58-9.54s9.09,2.19,10.23,1.32.15-26.38.15-26.38h4.64C331.45,602,333.62,619.45,332.5,621.23Z"/><path class="cls-19" d="M380.24,440.58s16.37,33.07,17.33,46.41c.5,6.94,5.3,98.8,5.3,98.8h-3.35c-1.28-23.27-6.17-98.82-7.64-100.36-1.77-1.86-20.05-48.35-20.05-48.35s.63-13.85,1.21-31.83q3.73-.67,7.44-1.39C380.38,423.87,380.24,440.58,380.24,440.58Z"/><path class="cls-21" d="M326.65,446.15s7.28,22.51,9.46,34.35c1.6,8.65-6.6,115.9-6.6,115.9h-4.65l6.22-109.73-10.52-43,.24-32.82q3.43-.09,6.89-.27C327.35,428.69,327,444.3,326.65,446.15Z"/><path class="cls-19" d="M368.38,459.17a1.75,1.75,0,0,1-.67,1,1.48,1.48,0,0,1-1.15,0,9.59,9.59,0,0,1-4.71-3.67c-2.69-3.54-8.39-15.7-.37-15.88S370.43,453.7,368.38,459.17Z"/><path class="cls-19" d="M314.68,462.59c-.62,1.81-1.6,3.7-3.32,4.33a4.52,4.52,0,0,1-4.26-.92,12.27,12.27,0,0,1-2.83-3.68,23.27,23.27,0,0,1-3-8.06c-.81-5.84,3.46-13.48,9.84-10.57S316.56,457,314.68,462.59Z"/><path class="cls-20" d="M373.61,240.79c-.15-3.57-.27-7-.32-10.32.74-1.15,5.33-12.95,5.47-21.42.13-8-10.7-49.74-10.7-49.74l-50.76-2.93-6.2,4s-13,34.51-12.26,46.56c.84,13,7.22,22.4,9.37,26.59-2.14,11.06-18.73,76.69-19.13,78.46,46.47,14.37,90.83,5,91,4.94Z"/><path class="cls-18" d="M367.31,160l-14.48-10.33L350,149l-1.26.05-17.23.67-1.4.05-2.24.91-10.43,5.94C330.47,173,352.67,172.71,367.31,160Z"/><path class="cls-19" d="M345.09,143.32A21.3,21.3,0,0,1,331.34,141c.26-5.76.24-12.71.24-12.71l18.52.25a105.37,105.37,0,0,0,.14,11.94A10.06,10.06,0,0,1,345.09,143.32Z"/><path class="cls-18" d="M348.47,155.3c1.95-1.5,3-3.71,4.36-5.67l-.09-.07c-1.46-1.27-2.17-5-2.5-9a10.06,10.06,0,0,1-5.15,2.8A21.3,21.3,0,0,1,331.34,141a38.75,38.75,0,0,1-.71,7c-.2.62-1.22,1.55-2.75,2.64,3.27,3.48,6.81,6.55,11.08,7.65C342.19,159.19,345.46,157.53,348.47,155.3Z"/><path class="cls-23" d="M319,117.25c-3.72-.58-6.32-3.67-7.67-6.21a14.21,14.21,0,0,1-.72-1.61c-.95-2.63-.86-11.6,2-13.55,2-1.36,3.3.82,3.91,2.25h0a9.57,9.57,0,0,1,.39,1.08Z"/><path class="cls-18" d="M319,117.25c-3.72-.58-6.32-3.67-7.67-6.21-.11-.26-.21-.51-.3-.74-.95-2.63-.86-11.6,2-13.55,1.62-1.1,2.78.12,3.49,1.38h0a9.57,9.57,0,0,1,.39,1.08Z"/><path class="cls-19" d="M311.37,103a5,5,0,0,0,0,2.18c.62,3,2.77,5.44,4.83,7.68a9.83,9.83,0,0,1-.55-4.75c.08-.55.19-1.1.22-1.66C316,104.15,312.37,98.76,311.37,103Z"/><path class="cls-24" d="M317.28,113.71l-.12-.1a3,3,0,0,1-.34-.29,6,6,0,0,1-1-1.33,6.75,6.75,0,0,1-.77-2.43,6.35,6.35,0,0,1,.41-3.14c.05-.14.11-.26.17-.39l.05-.09s0,0,0,0h0v0l0-.09-.06-.17c0-.12-.09-.23-.14-.34a12.47,12.47,0,0,0-.6-1.27c-.21-.4-.42-.76-.64-1.1a6.56,6.56,0,0,0-.65-.87,1.33,1.33,0,0,0-.68-.45.84.84,0,0,0-.6.1.72.72,0,0,0-.28.31.41.41,0,0,0,0,.15.49.49,0,0,1,0-.16.76.76,0,0,1,.24-.4,1,1,0,0,1,.7-.25,1.57,1.57,0,0,1,.91.4,5.87,5.87,0,0,1,.8.84,10.19,10.19,0,0,1,.78,1.07,10.84,10.84,0,0,1,.72,1.31q.08.17.15.36l.08.18.1.26.07.18-.09.18-.12.25a2.52,2.52,0,0,0-.15.33,6.9,6.9,0,0,0-.47,2.78,7.48,7.48,0,0,0,.47,2.3,6.54,6.54,0,0,0,.75,1.43c.11.16.21.27.27.35Z"/><path class="cls-23" d="M362.26,119.35c3.76-.21,6.62-3,8.19-5.44a12.13,12.13,0,0,0,.85-1.52c1.19-2.53,1.89-11.47-.77-13.69-1.86-1.55-3.36.5-4.09,1.86h0a9.29,9.29,0,0,0-.48,1Z"/><path class="cls-18" d="M362.26,119.35c3.76-.21,6.62-3,8.19-5.44.13-.24.25-.48.36-.7,1.18-2.53,1.88-11.47-.78-13.68-1.51-1.26-2.78-.16-3.59,1h0a9.29,9.29,0,0,0-.48,1Z"/><path class="cls-19" d="M371.08,105.86a5,5,0,0,1-.22,2.16c-.88,3-3.24,5.15-5.49,7.17a9.56,9.56,0,0,0,1-4.66c0-.56-.09-1.12-.07-1.68C366.35,106.59,370.46,101.58,371.08,105.86Z"/><path class="cls-24" d="M364.25,116l.13-.09c.08-.06.21-.14.36-.26a5.62,5.62,0,0,0,1.12-1.23,6.76,6.76,0,0,0,1-2.34,6.5,6.5,0,0,0-.13-3.17c0-.14-.09-.27-.14-.4l0-.1s0,0,0,0h0v0l0-.08.08-.17.16-.33a11.5,11.5,0,0,1,.71-1.2,12.43,12.43,0,0,1,.74-1,5.89,5.89,0,0,1,.72-.81,1.38,1.38,0,0,1,.71-.38.92.92,0,0,1,.59.16.66.66,0,0,1,.25.34.53.53,0,0,1,0,.15.34.34,0,0,0,0-.16.72.72,0,0,0-.2-.42,1,1,0,0,0-.67-.32,1.53,1.53,0,0,0-.94.31,6,6,0,0,0-.88.76,11,11,0,0,0-.87,1,9.39,9.39,0,0,0-.82,1.23c-.07.11-.13.23-.19.34l-.09.18-.12.25-.09.17c0,.06.05.12.07.19l.1.26a3.4,3.4,0,0,1,.12.34,7,7,0,0,1,.22,2.81,7.29,7.29,0,0,1-.67,2.25,6.42,6.42,0,0,1-.88,1.35c-.12.15-.23.25-.29.32Z"/><path class="cls-23" d="M366.2,100s-1.44,17.37-6.13,23.61c-3.92,5.23-9.53,13.59-18,16.11a7.62,7.62,0,0,1-5.05-.24c-8.23-3.34-13.08-12.21-16.52-17.79-4.12-6.68-4-24.11-4-24.11q0-1.74.12-3.36v0c2-32.93,26.29-29.94,26.29-29.94s24,1.41,23.4,34Q366.25,99.12,366.2,100Z"/><path class="cls-18" d="M366.26,98.28c-.27,2.77-1.86,17.51-6.09,23.16-3.93,5.22-9.53,13.58-18,16.11a7.59,7.59,0,0,1-5-.25c-8.23-3.34-13.08-12.2-16.53-17.79-4.11-6.67-4-24.11-4-24.11,0-.4,0-.8,0-1.19v0c2-32.93,26.29-29.94,26.29-29.94S366.89,65.65,366.26,98.28Z"/><path class="cls-25" d="M332.6,122c6.39,1.37,13.61-.12,18.24-3.77a11.64,11.64,0,0,1-7.65,5.71A16.05,16.05,0,0,1,332.6,122Z"/><path class="cls-25" d="M338,126.87a11,11,0,0,0,9.61-2.29,6.31,6.31,0,0,1-4,3.43A7.6,7.6,0,0,1,338,126.87Z"/><path class="cls-8" d="M323.81,94.56a5.47,5.47,0,0,0,2.53,2.54,2.21,2.21,0,0,1,1.74-.82c1.61.09,2.8,2.36,2.66,5.07s-1.56,4.83-3.17,4.74-2.8-2.36-2.66-5.07a7.76,7.76,0,0,1,.47-2.3C324.21,97.52,323.81,94.56,323.81,94.56Z"/><path class="cls-6" d="M328,101.71a6.35,6.35,0,0,1-3.65-.07,6.71,6.71,0,0,1-2.93-2.27,6.42,6.42,0,0,1,3.64.07A6.78,6.78,0,0,1,328,101.71Z"/><path class="cls-8" d="M358.32,96.24a5.45,5.45,0,0,1-2.75,2.28,2.26,2.26,0,0,0-1.66-1c-1.61-.06-3,2.08-3.09,4.8s1.12,5,2.73,5,3-2.07,3.1-4.79a7.86,7.86,0,0,0-.26-2.33C357.66,99.14,358.32,96.24,358.32,96.24Z"/><path class="cls-6" d="M353.56,103a6.34,6.34,0,0,0,3.64.29,6.72,6.72,0,0,0,3.12-2,6.44,6.44,0,0,0-3.64-.29A6.72,6.72,0,0,0,353.56,103Z"/><path class="cls-19" d="M339.72,112.78a3.53,3.53,0,0,1,2.89,2.22.77.77,0,0,1,.05.47c-.07.23-.33.33-.56.39a11.34,11.34,0,0,1-4.92.12C334.25,115.4,338.26,112.65,339.72,112.78Z"/><path class="cls-25" d="M338,115.24s0-.19,0-.52c0-.16.05-.36.07-.6s.06-.49.08-.78.05-.59.07-.93.05-.69.08-1.06c0-.74.07-1.55.1-2.4s0-1.65,0-2.4c0-.37,0-.73,0-1.06s0-.65,0-.94,0-.55,0-.78,0-.43,0-.6c0-.33,0-.52,0-.52l.25.45c.08.15.18.33.27.54s.22.46.32.74.21.59.31.93.18.71.26,1.1A12.38,12.38,0,0,1,340,109a12.54,12.54,0,0,1-.36,2.57c-.1.39-.2.75-.32,1.08s-.24.64-.37.91-.24.51-.35.72-.21.38-.3.52Z"/><path class="cls-17" d="M362.94,115.1s.08-.39.24-1.08c0-.17.08-.36.13-.56s.1-.44.15-.68c.1-.49.23-1,.35-1.65.06-.3.12-.62.19-.95s.13-.68.19-1c.15-.71.27-1.47.41-2.26.26-1.6.53-3.34.78-5.17s.45-3.59.62-5.2c.07-.81.15-1.58.2-2.3,0-.37.07-.72.09-1.06s0-.66.06-1c.06-.62.07-1.19.1-1.69,0-.25,0-.49,0-.7s0-.41,0-.59c0-.71.05-1.11.05-1.11s.12.36.3,1q.08.26.15.57c.06.21.1.44.16.68.1.49.23,1.06.32,1.69q.08.48.15,1c.05.35.08.71.12,1.09.09.75.13,1.56.16,2.42a33.25,33.25,0,0,1-1.47,11c-.26.8-.51,1.56-.79,2.24-.14.35-.26.68-.4,1l-.4.89c-.26.57-.53,1-.75,1.48-.12.22-.22.42-.33.6l-.29.48C363.15,114.8,362.94,115.1,362.94,115.1Z"/><path class="cls-17" d="M318.9,118.22s-.14-.35-.38-1-.56-1.59-.91-2.78-.71-2.63-1-4.26a51.49,51.49,0,0,1-.77-5.36c-.17-1.93-.21-3.78-.19-5.46s.14-3.2.28-4.46.28-2.29.4-3,.19-1.09.19-1.09.07.39.17,1.09.23,1.71.39,3,.33,2.7.51,4.33.37,3.4.53,5.27.3,3.66.4,5.29.18,3.12.25,4.38.1,2.27.13,3S318.9,118.22,318.9,118.22Z"/><path class="cls-19" d="M326.85,111.73c-.46,1.12-3.44.86-6.66-.59s-5.47-3.53-5-4.65,3.44-.86,6.66.59S327.31,110.61,326.85,111.73Z"/><path class="cls-19" d="M366.72,108.77c.4,1.15-2,3.09-5.24,4.35s-6.29,1.34-6.69.19,1.95-3.09,5.25-4.35S366.33,107.62,366.72,108.77Z"/><path class="cls-17" d="M343.68,79c.94,2,1.86,4,2.81,6-9.45-3.62-14.52-5.94-18.8-15.5-1.32,13.1-8.16,25.54-18.56,32.91-.44-2.83-.83-5.74-1.05-8.61-.58-7.32,0-14.59,3.69-20.73a22.12,22.12,0,0,1,11.31-9.35,20.78,20.78,0,0,1,11-11.23,24.48,24.48,0,0,1,14.76-.86A27.42,27.42,0,0,1,358.46,56c5.94,4.35,9.8,11.39,11.45,18.81a43.08,43.08,0,0,1,.74,5.65c.68,8.72.3,21,.3,21S351.17,86.36,343.68,79Z"/><path class="cls-16" d="M318.24,87.16s13.07-3.72,15.75.44c1.56,2.42-.53,2.86-.53,2.86Z"/><path class="cls-16" d="M364.5,89.14s-12.69-5-15.72-1.09c-1.77,2.27.27,2.9.27,2.9Z"/><path class="cls-16" d="M356.53,77.14c-7.2-2.78-13.85-6.94-20.22-11.46a25.09,25.09,0,0,0,.28,5.61,58.17,58.17,0,0,1-11.11-7.42,38,38,0,0,1-7.64,18.22,11,11,0,0,0-.9-6.1c.23.5-.76,2.77-.93,3.33-.36,1.16-.73,2.3-1.14,3.44a29.19,29.19,0,0,1-6.31,10.58c-.16.14-.31.31-.48.49A42.12,42.12,0,0,1,309,79.74a25,25,0,0,1,2.78-6.64A22.28,22.28,0,0,1,323,63.78s.06,0,.09,0a20.79,20.79,0,0,1,11-11.23,24.48,24.48,0,0,1,14.76-.86A27.42,27.42,0,0,1,358.46,56,29.37,29.37,0,0,1,368,68.76a35.89,35.89,0,0,1,1.9,6.07,43.08,43.08,0,0,1,.74,5.65A50.91,50.91,0,0,1,356.53,77.14Z"/><path class="cls-26" d="M323,63.78c0,.11-.06.21-.08.32a15.9,15.9,0,0,1-5.21,8.44c.07-1,.11-2,.15-2.92A41.11,41.11,0,0,1,309,79.74a25,25,0,0,1,2.78-6.64A22.28,22.28,0,0,1,323,63.78Z"/><path class="cls-26" d="M335.63,55.67c0,1.33.08,2.66.13,4a27.34,27.34,0,0,1-7.86-3,19.65,19.65,0,0,1,6.19-4.12,24.48,24.48,0,0,1,14.76-.86A27.42,27.42,0,0,1,358.46,56,29.37,29.37,0,0,1,368,68.76C356.36,68.74,344.9,63.27,335.63,55.67Z"/><path class="cls-27" d="M365.18,225.05c-3.82,1.71-6.93,4.06-11.94,5.7-4.69,1.53-9.68-1.82-14.59-2.1-4.2-.25-8.37.77-12.57,1s-8.76-.49-11.78-3.56c2.45,5,7.86,8.34,13.19,7.63,2.91-.39,5.63-1.79,8.54-2.12,3.86-.44,9.74,2.52,13.59,3.08C356.72,235.72,364.73,225,365.18,225.05Z"/><path class="cls-28" d="M306.4,203.32a211.42,211.42,0,0,1-2.49-28.43,88.55,88.55,0,0,0-1.23,30.84C303.78,204.94,305.3,204.11,306.4,203.32Z"/><path class="cls-28" d="M375.44,203.32a211.42,211.42,0,0,0,2.49-28.43,88.55,88.55,0,0,1,1.23,30.84C378.06,204.94,376.54,204.11,375.44,203.32Z"/><path class="cls-29" d="M333.7,589.8h-28l-9.27-110.91L294.86,460,333.7,453s5.43,21.91,6.92,24.54a3.6,3.6,0,0,1,.15,1.31C341.22,491.65,333.7,589.8,333.7,589.8Z"/><path class="cls-29" d="M408.47,585.78H377.66l-21-106.89-3.66-18.63,38.16-5.17s6.7,16.39,9.31,23.8a27.57,27.57,0,0,1,1,3.21C402.08,485.32,408.47,585.78,408.47,585.78Z"/><path class="cls-30" d="M340.62,477.58a3.6,3.6,0,0,1,.15,1.31H296.45L294.86,460,333.7,453S339.13,475,340.62,477.58Z"/><path class="cls-30" d="M400.52,478.89H356.71l-3.66-18.63,38.16-5.17S397.91,471.48,400.52,478.89Z"/><path class="cls-6" d="M311.44,156.83s.69,28.63-.18,32.72-14.79,16.65-14.79,17.52,2.51,15.49,9.19,26.29c0,0-27.29,98.59-27.29,106s8.46,126.18,8.46,126.18,107.29-1.87,116-5.31L392.4,424s1.67-64.37.84-78.85-17.55-112.62-17.55-112.62,6.06-23,6.27-26.51c0,0-15.25-17.75-15.66-20.59s1-29,1-29-3.31-2.18-5.19-2.47c0,0-3.9,33.89-5.5,35.49s-34.39,2.85-35.51.37-2.64-36.22-2.64-36.22Z"/><path class="cls-21" d="M364.32,238.14c-5.81.38-11.07.4-16.63-1.67-2.43-.91-4.66-2.25-7.27-2.55-8.46-1-15.4,5.44-24.22,4.19a.27.27,0,0,0-.25.45c5.25,5.28,11.46,1.35,17.5-.38s10,.6,15.38,2.41c5.05,1.69,10.27,1.43,15.49,1C366.38,241.36,366.42,238,364.32,238.14Z"/><path class="cls-21" d="M377.49,421.92c.29-.18.19-.71-.18-.69-9.63.46-19.54,4.63-28.95,6.85-11.48,2.71-23.16,4.95-34.84,6.51a1.43,1.43,0,0,0-.36,2.76A122.25,122.25,0,0,0,374,446.54c1.45-.15,1.5-2.5,0-2.42a150.18,150.18,0,0,1-54.5-7.54c8.92-1.26,17.78-2.73,26.61-4.72C356.31,429.57,368.57,427.69,377.49,421.92Z"/><path class="cls-21" d="M360.37,351.85c-11.78-14.87-32.86-21.51-50.45-23.56-1-.13-1.3,1.78-.25,1.93a92.66,92.66,0,0,1,27.39,8.57c8,4,14.75,9.68,22.31,14.41C360.22,353.73,360.94,352.57,360.37,351.85Z"/><path class="cls-18" d="M366,247c1,2.88,19.07-6.32,19.07-6.32l4.05,4-7.22,4.59-6.21,11.15s1.37,2.05,3.2,4.47c.22.3.46.6.7.91A47.79,47.79,0,0,0,383,270l.33.35a14.43,14.43,0,0,0,1.67,1.45,3.13,3.13,0,0,0,1.51.7l6.52-7.38s13.2.91,15,0c.72-.36,2.6-3.45,4.61-7,.95-1.72,4.64-8.46,5.54-10.17L416,242.93l-13.26-5.39c-1.26-.37-2.93-.82-4.81-1.25h0c-.93-.22-1.9-.43-2.9-.62a38.73,38.73,0,0,0-10.65-.85,9.2,9.2,0,0,0-3.4.91C374.65,239,365,244.17,366,247Z"/><path class="cls-24" d="M383,270l.33.35.89-1.33c.83-1.23,2-2.86,3.24-4.6a33.05,33.05,0,0,1,3.6-4.21l.73-.68c.24-.18.43-.34.6-.46l.53-.43-.67.16-.79.2c-.29.12-.61.25-1,.42a12.66,12.66,0,0,0-4.68,3.89,15.78,15.78,0,0,0-2.51,5.33C383.17,269.13,383.08,269.59,383,270Z"/><path class="cls-24" d="M378.84,265c.22.3.46.6.7.91l.15-.21c.82-1.22,2-2.86,3.23-4.59a33.34,33.34,0,0,1,3.6-4.22c.27-.25.51-.48.73-.67l.6-.47.52-.42-.66.15-.78.21c-.29.11-.62.25-1,.41a12.55,12.55,0,0,0-4.68,3.9A15.62,15.62,0,0,0,378.84,265Z"/><path class="cls-18" d="M300.89,242.22c-.58,3-19.71-3.55-19.71-3.55l-3.5,4.58,7.75,3.51,7.6,10.16s-1.09,2.23-2.59,4.88c-.18.34-.38.67-.57,1a50.88,50.88,0,0,1-2.92,4.55l-.29.39a16.46,16.46,0,0,1-1.46,1.68,3.29,3.29,0,0,1-1.41.9L276.38,264s-13,2.78-14.88,2.14c-.76-.26-3-3-5.47-6.32-1.17-1.57-5.69-7.72-6.81-9.29l1.53-5.21,12.44-7.22c1.2-.54,2.8-1.23,4.6-1.92h0c.89-.34,1.83-.69,2.79-1A38.87,38.87,0,0,1,281,232.74a9.18,9.18,0,0,1,3.48.41C291.23,235.53,301.48,239.23,300.89,242.22Z"/><path class="cls-24" d="M287,267.36l-.29.39-1.05-1.19c-1-1.1-2.32-2.56-3.81-4.1a32.43,32.43,0,0,0-4.11-3.66l-.81-.57-.66-.37-.57-.34.68.05c.22,0,.49.05.8.1s.65.15,1,.26a12.57,12.57,0,0,1,5.14,3.19,15.75,15.75,0,0,1,3.17,4.92C286.69,266.56,286.84,267,287,267.36Z"/><path class="cls-24" d="M290.44,261.8c-.18.34-.38.67-.57,1-.07-.06-.12-.13-.18-.19-1-1.09-2.32-2.55-3.8-4.09a32.51,32.51,0,0,0-4.11-3.67l-.81-.56-.66-.38-.57-.33.68,0c.21,0,.49.05.8.1s.65.15,1,.26a12.44,12.44,0,0,1,5.14,3.19A15.61,15.61,0,0,1,290.44,261.8Z"/><path class="cls-8" d="M299.71,628.88l-9.39-23.2s-24.42,7.49-27.13,14.94a72.81,72.81,0,0,0-3.52,14.69l78.32-.14v-6.35Z"/><path class="cls-8" d="M376.87,628.45s3.9-14.46,19.07-14,18.24,15.77,18.24,15.77-6.48,18.26-11.31,18.7-7.34.43-7.34.43S382.58,642.32,376.87,628.45Z"/><rect class="cls-14" x="165.46" y="311.76" width="470.03" height="17.25"/><rect class="cls-14" x="211.9" y="371.56" width="377.16" height="9.24"/><polygon class="cls-14" points="189.21 649.33 224.75 320.39 212.87 320.39 177.32 649.33 189.21 649.33"/><polygon class="cls-14" points="611.75 649.33 576.2 320.39 588.09 320.39 623.63 649.33 611.75 649.33"/><path class="cls-8" d="M461.81,266.25h25.5a1.7,1.7,0,0,1,1.7,1.7v43.82a0,0,0,0,1,0,0h-28.9a0,0,0,0,1,0,0V267.94A1.7,1.7,0,0,1,461.81,266.25Z"/><rect class="cls-11" x="465.16" y="248.52" width="18.81" height="17.73"/><rect class="cls-8" x="465.16" y="248.52" width="18.81" height="4.86"/><path class="cls-6" d="M485.06,280.47c0,3.68-4.7,6.65-10.5,6.65s-10.49-3-10.49-6.65,4.7-6.65,10.49-6.65S485.06,276.8,485.06,280.47Z"/><path class="cls-12" d="M317.9,281a.8.8,0,0,0,.13.24,4.5,4.5,0,0,0-.56-.07,11.74,11.74,0,0,1-2.88-.33,27.61,27.61,0,0,1-8.31-5.24,31.49,31.49,0,0,1-10.18-22.77,3,3,0,0,1,3.47-2.56,5,5,0,0,1,3.32,3.19,15.69,15.69,0,0,1,.8,4.84,11.31,11.31,0,0,1,2.14-4.75c1.17-1.27,3.22-1.83,4.56-.76s1.31,3.36,1.1,5.22a2.94,2.94,0,0,1,3.51-2.35,4.5,4.5,0,0,1,3,3.42,9.78,9.78,0,0,1-.35,4.85c-.45,1.56-1.1,3.07-1.51,4.64a16.25,16.25,0,0,0-.35,6.4h0A15.76,15.76,0,0,0,317.9,281Z"/><path class="cls-31" d="M317.47,281.2a11.74,11.74,0,0,1-2.88-.33,27.61,27.61,0,0,1-8.31-5.24c-3.47-4.94-5.54-11.68-6.43-16.74-.07-.34.41-.49.49-.14a38.88,38.88,0,0,0,5.57,12.46,51.72,51.72,0,0,0,5.5,6.12c-3.22-5.16-5.26-11.75-5.12-16.62a.18.18,0,0,1,.36,0c1.66,4.34,2.66,8.79,5,12.83C313.34,276.31,315.58,278.62,317.47,281.2Z"/><path class="cls-31" d="M317.9,281c-4.44-4-7.55-13.13-6.41-18.13a.31.31,0,0,1,.6,0c1.18,3.64,1.35,7.28,3,10.83a11.12,11.12,0,0,0,.7,1.27h0A15.76,15.76,0,0,0,317.9,281Z"/><path class="cls-10" d="M323.65,275.56a8.39,8.39,0,0,1-12.26.14,9.41,9.41,0,0,1-.13-12.86,8.39,8.39,0,0,1,12.26-.14A9.41,9.41,0,0,1,323.65,275.56Z"/><path class="cls-12" d="M323.2,265.68a5.54,5.54,0,0,1-3.59,1.54,4.63,4.63,0,0,1-3-1.38,7.89,7.89,0,0,1-2.35-4.22,4.32,4.32,0,0,1,2.53,1.92,5.12,5.12,0,0,1,1.9-4.07,7.74,7.74,0,0,1,.66,4.62,4,4,0,0,1,2.89-2,9,9,0,0,1-1.21,3.58C322.12,265,323,265.34,323.2,265.68Z"/><path class="cls-10" d="M305.77,266.05a9.25,9.25,0,0,1-4.71,11.87A8.53,8.53,0,0,1,289.74,273a9.26,9.26,0,0,1,4.7-11.88A8.55,8.55,0,0,1,305.77,266.05Z"/><path class="cls-12" d="M296.92,262.6a6.21,6.21,0,0,1-.06,4.06,4.8,4.8,0,0,1-2.38,2.34,7.07,7.07,0,0,1-4.63.6,4.35,4.35,0,0,1,2.69-1.68,4.92,4.92,0,0,1-2.83-3.43,6.88,6.88,0,0,1,4.31,1.18,4.39,4.39,0,0,1-.65-3.59,8.5,8.5,0,0,1,2.66,2.58C295.92,263.37,296.54,262.69,296.92,262.6Z"/><path class="cls-5" d="M276.9,282.83H394.16a0,0,0,0,1,0,0v26a2.93,2.93,0,0,1-2.93,2.93H279.83a2.93,2.93,0,0,1-2.93-2.93v-26A0,0,0,0,1,276.9,282.83Z"/><path class="cls-12" d="M384.52,277.09H340.1c.36-.63.72-1.27,1.09-1.9,4.91-8.55,10.65-16.86,18.87-21.81a8.22,8.22,0,0,1,4.43-1.49,3.51,3.51,0,0,1,3.43,2.81c.33,2.53-2.59,5.27-1.05,7.25a3,3,0,0,0,3.11.66,19.64,19.64,0,0,1,3.2-1,4.33,4.33,0,0,1,4.47,3.81,4.43,4.43,0,0,1-3.55,4.75,19,19,0,0,1,6.87,2A7.28,7.28,0,0,1,384.52,277.09Z"/><path class="cls-31" d="M358.49,263.9c-5,4.69-10.5,8.94-15.89,13.19h-2.5c.36-.63.72-1.27,1.09-1.9a75.64,75.64,0,0,1,17.15-11.48C358.46,263.65,358.61,263.81,358.49,263.9Z"/><path class="cls-31" d="M366.31,267.88c-3.52,1.79-7.28,3-10.78,4.83a62.35,62.35,0,0,0-6.94,4.38h-3c5.95-4.63,13.37-8.94,20.61-9.62A.22.22,0,0,1,366.31,267.88Z"/><path class="cls-31" d="M372.11,272.56c-3,1.45-6.34,2.12-9.45,3.29-1,.37-2,.79-3,1.24h-5.26c5.44-2.91,12-5.27,17.54-5.09C372.21,272,372.37,272.42,372.11,272.56Z"/><rect class="cls-32" x="271.23" y="274.66" width="128.61" height="10.47"/><path class="cls-10" d="M193.5,270.59a9.24,9.24,0,0,1-4.7,11.87,8.53,8.53,0,0,1-11.32-4.93,9.26,9.26,0,0,1,4.7-11.88A8.53,8.53,0,0,1,193.5,270.59Z"/><path class="cls-12" d="M184.66,267.14a6.21,6.21,0,0,1-.06,4.06,4.84,4.84,0,0,1-2.38,2.34,7.07,7.07,0,0,1-4.63.6,4.35,4.35,0,0,1,2.69-1.68,4.92,4.92,0,0,1-2.83-3.43,6.9,6.9,0,0,1,4.31,1.18,4.44,4.44,0,0,1-.66-3.59,8.43,8.43,0,0,1,2.67,2.58C183.65,267.91,184.27,267.23,184.66,267.14Z"/><path class="cls-12" d="M200.42,256.25c1-1,2.81-.61,3.66,1.81a15.6,15.6,0,0,1-.6-7.82,19.76,19.76,0,0,1,2.26-6.66c.84-1.51,2.43-3.07,3.95-2.37a3.78,3.78,0,0,1,1.67,2.53A33.79,33.79,0,0,1,212.82,254c.46-2.12,2.1-4.25,4.17-4.1s3.54,2.93,3.16,5.22-1.92,4.15-3.39,5.88a7.78,7.78,0,0,1,2.91-1.47c1.07-.2,2.78,0,2.84,1.17.22,4-5.47,15.31-8.55,15-7.28-.7-11.77-12.33-13.37-15.32C199.53,258.45,199.73,257,200.42,256.25Z"/><path class="cls-31" d="M217.87,284.25c-1.73-4.08-3.92-7.95-5.62-12a8.18,8.18,0,0,0,3.29-2A14,14,0,0,0,219,265c.07-.21-.17-.44-.33-.24a21.53,21.53,0,0,1-3.49,3.46,16.21,16.21,0,0,1,.58-2.8c.25-.72-.76-1.29-1-.56a9.22,9.22,0,0,0-.73,4c0,.07,0,.11.08.17a20.74,20.74,0,0,0-2.52,1.54c-.21-.58-.42-1.17-.61-1.77-.55-1.72-1-3.44-1.39-5.17a15.13,15.13,0,0,0,2.93-2.32c1.22-1.14,3.26-3,3.45-4.78a.36.36,0,0,0-.53-.38,11.23,11.23,0,0,0-2.7,3,7.82,7.82,0,0,1-.86-1c-.36-.55-.54-1.19-1-1.7-.11-.13-.31,0-.34.11a4,4,0,0,0,1.48,3.43L212,260a33.83,33.83,0,0,1-2.72,2.2c-.54-2.6-.92-5.23-1.25-7.89,1.35-.62,2.4-2.49,1.73-3.9a.18.18,0,0,0-.29,0,8.55,8.55,0,0,0-1.14,1.46,4.25,4.25,0,0,1-.51.6c-.09-.78-.17-1.56-.25-2.35a.43.43,0,1,0-.86,0,58.21,58.21,0,0,0,1.13,13.51l0,0a.29.29,0,0,0,.13.45c.25,1.22.53,2.43.86,3.63a23,23,0,0,1-1.81-2.08,35.15,35.15,0,0,1-3.1-5.4c-.09-.2-.42,0-.34.17a26.35,26.35,0,0,0,3,5.84,15.13,15.13,0,0,0,2.78,3.39,39.39,39.39,0,0,0,8.11,14.88A.24.24,0,0,0,217.87,284.25Z"/><path class="cls-10" d="M210,278.61a8.39,8.39,0,0,1-12.26-.22,9.41,9.41,0,0,1,.21-12.86,8.39,8.39,0,0,1,12.26.22A9.41,9.41,0,0,1,210,278.61Z"/><path class="cls-12" d="M209.79,268.72a5.49,5.49,0,0,1-3.62,1.43,4.62,4.62,0,0,1-3-1.47A7.77,7.77,0,0,1,201,264.4a4.35,4.35,0,0,1,2.48,2,5,5,0,0,1,2-4A7.86,7.86,0,0,1,206,267a4,4,0,0,1,2.93-2,8.8,8.8,0,0,1-1.3,3.54C208.73,268,209.56,268.37,209.79,268.72Z"/><path class="cls-12" d="M242.62,267.89c-.5-1.14-2.17-1.41-3.58.34a13.72,13.72,0,0,0,2.78-6.34,17.73,17.73,0,0,0,.05-6.29c-.26-1.54-1.13-3.35-2.61-3.25a3.21,3.21,0,0,0-2.13,1.58,29.38,29.38,0,0,0-4.22,8.13c.23-1.93-.51-4.23-2.29-4.76s-3.81,1.31-4.16,3.34.39,4.08,1.12,6a7.34,7.34,0,0,0-2-2.17c-.83-.51-2.33-.87-2.71.06-1.35,3.28.1,14.56,2.76,15.3,6.29,1.75,13.44-6.54,15.65-8.52C242.73,270,243,268.72,242.62,267.89Z"/><path class="cls-31" d="M219.88,285.7c2.63-2.86,5.59-5.39,8.2-8.26a7.63,7.63,0,0,1-2.16-2.74,12.83,12.83,0,0,1-1.37-5.48c0-.2.26-.32.34-.1a20.29,20.29,0,0,0,1.91,4,15,15,0,0,0,.33-2.52c0-.69,1-.84,1-.15a8.4,8.4,0,0,1-.55,3.56c0,.06-.08.08-.12.12a17.32,17.32,0,0,1,1.66,2.09c.35-.42.7-.84,1-1.28,1-1.27,1.84-2.56,2.67-3.88a13.94,13.94,0,0,1-1.78-2.88c-.69-1.34-1.86-3.53-1.48-5.1a.31.31,0,0,1,.55-.15,10.56,10.56,0,0,1,1.38,3.37,7.48,7.48,0,0,0,1-.59,13.5,13.5,0,0,1,1.29-1.11c.13-.08.26.07.25.2a3.43,3.43,0,0,1-2.23,2.39l0,.08c.42.91,1.09,1.8,1.63,2.71,1.21-2,2.3-4.07,3.35-6.2-.95-.94-1.28-2.85-.3-3.81.08-.08.2,0,.24.07a7.81,7.81,0,0,1,.53,1.59,3.49,3.49,0,0,0,.26.66c.29-.62.59-1.25.88-1.88a.39.39,0,0,1,.71.32,50.26,50.26,0,0,1-4.89,10.92,0,0,0,0,1,0,0,.24.24,0,0,1-.23.33c-.57.94-1.16,1.86-1.78,2.76a21.17,21.17,0,0,0,2.12-1.15,29.1,29.1,0,0,0,4.16-3.53c.14-.14.37.1.24.26a22.72,22.72,0,0,1-4.24,3.9,13,13,0,0,1-3.32,1.94A33.61,33.61,0,0,1,220.13,286,.22.22,0,0,1,219.88,285.7Z"/><path class="cls-8" d="M173.29,274.54H242a0,0,0,0,1,0,0V308.2a3.56,3.56,0,0,1-3.56,3.56H176.85a3.56,3.56,0,0,1-3.56-3.56V274.54A0,0,0,0,1,173.29,274.54Z"/><path class="cls-8" d="M139.81,380.74H52.26c-6.44,0-11.66-5.48-11.66-12.23h0c0-6.76,5.22-12.23,11.66-12.23h87.55c6.44,0,11.66,5.47,11.66,12.23h0C151.47,375.26,146.25,380.74,139.81,380.74Z"/><rect class="cls-14" x="51.08" y="380.35" width="89.91" height="6.22"/><rect class="cls-14" x="55.21" y="416.58" width="81.64" height="6.22"/><rect class="cls-14" x="44.06" y="581.84" width="103.95" height="6.22"/><polygon class="cls-14" points="45.71 619.94 64.85 383.59 55.94 383.59 36.8 619.94 45.71 619.94"/><polygon class="cls-14" points="146.35 619.94 127.22 383.59 136.13 383.59 155.26 619.94 146.35 619.94"/><path class="cls-12" d="M125.53,182.48c-1.72,1.28-3.16,2.9-4.91,4.15-.83.59-1.8,1.15-2.67,1.8A76,76,0,0,0,115,178a14.74,14.74,0,0,0,6.39-3c1.81-1.51,4.14-4.31,3.39-6.9a2.66,2.66,0,0,0-3.18-1.89c-1.78.28-3.25,2.62-4.53,3.87a16.36,16.36,0,0,1-4.07,3c-.93-2.18-2-4.54-3.25-6.91,0,0,0,0,.07,0,2.24-.34,5.16-2.92,6.52-4.73,1.62-2.16,3-5.83,1.06-8.14a2.21,2.21,0,0,0-2.2-.61c-2.07.51-3.18,3.23-4.14,5a21.13,21.13,0,0,1-1.32,2.6c-.62.84-1.38,1.5-2,2.36a53.21,53.21,0,0,0-4.07-6c3.76-3.23,5.75-9.27,3.22-14a3,3,0,0,0-5.58.77c-.52,1.92-.39,4.14-.59,6.14a24.37,24.37,0,0,0,0,3.91,21.6,21.6,0,0,0-3.88-3,1.44,1.44,0,0,0-.53-.57c-1.2-.74-2.17-2.49-3.32-3.38a12.8,12.8,0,0,0-4.76-2.14c-3-.73-7.36-2-9.58.86a3.2,3.2,0,0,0-.44,3.6c1.6,3,5,2.82,7.92,3.5a23.7,23.7,0,0,0,4.24.82c1.18.05,2.84-.45,4.13-.29a36.3,36.3,0,0,0,3.8,4.94,17.34,17.34,0,0,0-2.26-.43c-3.37-.4-7.53-.67-10.22,1.77a2.54,2.54,0,0,0,.47,3.84c2.7,1.48,6.33.92,9.33,1,2.2.1,5.37.5,7.58-.4.19.27.39.53.58.81,1.3,1.94,2.48,4,3.6,6a27.11,27.11,0,0,0-4-.27c-2.26-.1-4.42-1-6.65-1-3,0-4.28,4.43-1.56,6,3.59,2.1,10.76,2,14-1.22.74,1.58,1.45,3.17,2.08,4.8.48,1.23.91,2.47,1.32,3.71a25.72,25.72,0,0,0-2.67-.26c-1.9-.19-3.71-.88-5.58-1.25-4.3-.85-5.93,5.31-1.8,6.87a13.71,13.71,0,0,0,7,.39,8.42,8.42,0,0,0,4.28-1.5,95.84,95.84,0,0,1,2.81,24.75c0,1.12,1.76,1.45,1.94.27a65,65,0,0,0,.06-18.64,10.31,10.31,0,0,0,4.86-.91,12.39,12.39,0,0,0,6.2-5.21C131.17,184.28,128.21,180.48,125.53,182.48Z"/><path class="cls-12" d="M123.87,180.48c1.72,1.28,3.16,2.9,4.91,4.15.83.59,1.8,1.15,2.68,1.8A74.55,74.55,0,0,1,134.39,176a14.74,14.74,0,0,1-6.39-3c-1.81-1.51-4.14-4.31-3.39-6.9a2.66,2.66,0,0,1,3.18-1.89c1.78.28,3.25,2.62,4.53,3.87a16.54,16.54,0,0,0,4.07,3c.93-2.18,2-4.53,3.26-6.91,0,0-.06,0-.08,0-2.24-.34-5.16-2.92-6.52-4.73-1.62-2.16-3-5.83-1.06-8.14a2.21,2.21,0,0,1,2.2-.61c2.07.51,3.18,3.23,4.14,5a21.13,21.13,0,0,0,1.32,2.6c.62.84,1.38,1.5,2,2.36a53.21,53.21,0,0,1,4.07-6c-3.76-3.23-5.75-9.27-3.22-14a3,3,0,0,1,5.58.77c.52,1.92.39,4.14.59,6.14a24.37,24.37,0,0,1,0,3.91,21.6,21.6,0,0,1,3.88-3,1.51,1.51,0,0,1,.53-.57c1.2-.74,2.17-2.49,3.32-3.38a12.8,12.8,0,0,1,4.76-2.14c3-.73,7.36-2,9.58.86a3.2,3.2,0,0,1,.44,3.6c-1.6,3-5,2.82-7.92,3.5a23.7,23.7,0,0,1-4.24.82c-1.18.05-2.84-.45-4.12-.29a36.38,36.38,0,0,1-3.81,4.94,17.34,17.34,0,0,1,2.26-.43c3.37-.4,7.53-.67,10.22,1.77a2.54,2.54,0,0,1-.47,3.84c-2.7,1.48-6.33.92-9.32,1-2.21.1-5.38.5-7.58-.4-.2.27-.4.53-.59.81-1.29,1.94-2.48,4-3.6,6a27.11,27.11,0,0,1,3.95-.27c2.26-.1,4.42-1,6.65-1,3,0,4.28,4.43,1.56,6-3.59,2.1-10.76,2-14-1.22-.74,1.58-1.45,3.17-2.08,4.8-.48,1.23-.91,2.47-1.32,3.71a25.72,25.72,0,0,1,2.67-.26c1.9-.19,3.71-.88,5.58-1.25,4.3-.85,5.93,5.31,1.8,6.87a13.71,13.71,0,0,1-7,.39,8.42,8.42,0,0,1-4.28-1.5,95.84,95.84,0,0,0-2.81,24.75c0,1.12-1.76,1.45-1.94.27a65,65,0,0,1-.06-18.64,10.31,10.31,0,0,1-4.86-.91,12.39,12.39,0,0,1-6.2-5.21C118.23,182.28,121.19,178.48,123.87,180.48Z"/><path class="cls-31" d="M111.44,186c2.1.21,4.12.86,6.23,1,1,.08,2.1.05,3.17.15a74,74,0,0,1-2.43-10.58,14.59,14.59,0,0,1-7,.7c-2.29-.35-5.64-1.57-6.23-4.2a2.81,2.81,0,0,1,1.86-3.3c1.67-.69,4.06.57,5.76,1a15.56,15.56,0,0,0,4.94.45c-.23-2.38-.41-5-.47-7.69l-.07,0c-2.1.87-5.86.17-7.9-.69-2.43-1-5.4-3.45-4.79-6.49a2.3,2.3,0,0,1,1.61-1.68c2-.65,4.29,1.13,6,2.17a20.17,20.17,0,0,0,2.37,1.56c1,.4,1.92.57,2.83,1a54.7,54.7,0,0,1,.68-7.31c-4.8-.83-9.4-5-9.47-10.45a3.07,3.07,0,0,1,5.19-2.27c1.37,1.39,2.32,3.38,3.44,5a23.6,23.6,0,0,1,1.83,3.41,23.46,23.46,0,0,1,1.92-4.66,1.58,1.58,0,0,1,.18-.77c.69-1.26.7-3.29,1.27-4.67a13.71,13.71,0,0,1,3.11-4.34c2.23-2.2,5.41-5.6,8.7-4.28a3.07,3.07,0,0,1,2.1,2.89c0,3.43-3,5.08-5.2,7.18a24.47,24.47,0,0,1-3.27,2.93c-1,.67-2.68,1.1-3.72,1.91a38.13,38.13,0,0,1-.94,6.28,19.19,19.19,0,0,1,1.75-1.56c2.74-2.12,6.21-4.53,9.7-3.83A2.5,2.5,0,0,1,136,148.5c-1.63,2.69-5,4.11-7.57,5.8-1.86,1.24-4.42,3.24-6.76,3.62,0,.34-.09.67-.12,1-.2,2.36-.27,4.74-.24,7.11a26.8,26.8,0,0,1,3.29-2.3c1.91-1.27,3.35-3.18,5.3-4.32,2.61-1.54,5.81,1.59,4.21,4.4-2.1,3.69-8.35,7.39-12.66,6.26.11,1.75.25,3.51.48,5.25.17,1.32.39,2.61.63,3.9a25.75,25.75,0,0,1,2.18-1.62c1.56-1.16,2.8-2.71,4.24-4,3.32-3,7.66,1.49,4.83,5a14.15,14.15,0,0,1-5.89,4c-1.36.56-3,1.22-4.42.95a94,94,0,0,0,9.35,22.9c.54,1-.83,2.19-1.55,1.26a62.93,62.93,0,0,1-8.93-16.12,10.31,10.31,0,0,1-4.64,1.76c-2.62.34-5.54.22-7.85-1.26C107.41,190.52,108.16,185.68,111.44,186Z"/><path class="cls-31" d="M131.17,177.29c1.23,1.8,2.08,3.83,3.35,5.61.6.84,1.34,1.7,2,2.61a71.24,71.24,0,0,1,6-8.87,15.54,15.54,0,0,1-5.1-5.07c-1.24-2-2.57-5.49-1.06-7.68a2.59,2.59,0,0,1,3.59-.71c1.6.88,2.26,3.6,3.09,5.21a17.35,17.35,0,0,0,2.92,4.2c1.56-1.75,3.31-3.6,5.22-5.42,0,0,0,0-.07,0-2-1.08-4-4.52-4.7-6.7-.86-2.59-1.05-6.54,1.53-8.06a2.19,2.19,0,0,1,2.27.18c1.8,1.18,2,4.13,2.36,6.15a20,20,0,0,0,.44,2.91c.33,1,.84,1.89,1.12,2.9a50.78,50.78,0,0,1,5.71-4.27c-2.56-4.34-2.57-10.72,1.3-14.35,2-1.86,5.17-.07,5,2.63-.1,2-.91,4.05-1.35,6a22.18,22.18,0,0,1-1.25,3.68,20.44,20.44,0,0,1,4.61-1.53,1.41,1.41,0,0,1,.68-.37c1.36-.28,2.82-1.61,4.19-2a12.17,12.17,0,0,1,5.16-.4c3,.33,7.58.62,8.79,4.08a3.21,3.21,0,0,1-.7,3.56c-2.45,2.29-5.65.93-8.58.6a23.75,23.75,0,0,1-4.26-.67c-1.13-.35-2.54-1.4-3.81-1.69a34.21,34.21,0,0,1-5.13,3.38,16.56,16.56,0,0,1,2.27.37c3.31.77,7.33,1.93,9.11,5.15a2.49,2.49,0,0,1-1.64,3.48c-3,.48-6.26-1.3-9.14-2.19-2.11-.66-5.23-1.37-7-3-.27.19-.54.37-.8.57-1.83,1.4-3.58,2.9-5.27,4.47a28.75,28.75,0,0,1,3.81,1.1c2.17.68,4.49.56,6.59,1.36,2.81,1.06,2.66,5.65-.4,6.23-4,.75-10.8-1.76-12.82-5.92-1.19,1.24-2.36,2.5-3.46,3.82q-1.24,1.51-2.4,3.06a24.54,24.54,0,0,1,2.61.67c1.85.47,3.78.43,5.66.72,4.33.66,4,7-.42,7.11a13.71,13.71,0,0,1-6.76-2,8.75,8.75,0,0,1-3.59-2.88,94.15,94.15,0,0,0-10.34,22.44c-.35,1.06-2.11.77-1.92-.41a64,64,0,0,1,5.74-17.64,10.49,10.49,0,0,1-4.32-2.52,13,13,0,0,1-4.24-7.05C125.27,177.07,129.25,174.49,131.17,177.29Z"/><rect class="cls-29" x="106.66" y="197.14" width="41.9" height="63.13"/><rect class="cls-6" x="106.66" y="202.37" width="41.9" height="3.21"/><rect class="cls-6" x="106.66" y="251.83" width="41.9" height="3.21"/><rect class="cls-20" x="163.38" y="229.56" width="22.26" height="30.7"/><path class="cls-20" d="M187.91,256.67h-8.69V233.15h8.69a6,6,0,0,1,5.81,6.09v11.34A6,6,0,0,1,187.91,256.67Zm-5.37-3.48h5.37a2.55,2.55,0,0,0,2.49-2.61V239.24a2.55,2.55,0,0,0-2.49-2.61h-5.37Z"/></g></g></g></svg>